HIERARCHY
ROOT hip
{
  OFFSET 0 0 0
  CHANNELS 6 Xposition Yposition Zposition Zrotation Yrotation Xrotation
  JOINT abdomen
  {
    OFFSET 0 20.6881 -0.73152
    CHANNELS 3 Zrotation Xrotation Yrotation
    JOINT chest
    {
      OFFSET 0 11.7043 -0.48768
      CHANNELS 3 Zrotation Xrotation Yrotation
      JOINT neck
      {
        OFFSET 0 22.1894 -2.19456
        CHANNELS 3 Zrotation Xrotation Yrotation
        JOINT head
        {
          OFFSET -0.24384 7.07133 1.2192
          CHANNELS 3 Zrotation Xrotation Yrotation
          JOINT leftEye
          {
            OFFSET 4.14528 8.04674 8.04672
            CHANNELS 3 Zrotation Xrotation Yrotation
            End Site
            {
              OFFSET 1 0 0
            }
          }
          JOINT rightEye
          {
            OFFSET -3.6576 8.04674 8.04672
            CHANNELS 3 Zrotation Xrotation Yrotation
            End Site
            {
              OFFSET 1 0 0
            }
          }
        }
      }
      JOINT rCollar
      {
        OFFSET -2.68224 19.2634 -4.8768
        CHANNELS 3 Zrotation Xrotation Yrotation
        JOINT rShldr
        {
          OFFSET -8.77824 -1.95073 1.46304
          CHANNELS 3 Zrotation Xrotation Yrotation
          JOINT rForeArm
          {
            OFFSET -28.1742 -1.7115 0.48768
            CHANNELS 3 Zrotation Xrotation Yrotation
            JOINT rHand
            {
              OFFSET -22.5879 0.773209 7.07136
              CHANNELS 3 Zrotation Xrotation Yrotation
              JOINT rThumb1
              {
                OFFSET -1.2192 -0.487915 3.41376
                CHANNELS 3 Zrotation Xrotation Yrotation
                JOINT rThumb2
                {
                  OFFSET -3.37035 -0.52449 3.41376
                  CHANNELS 3 Zrotation Xrotation Yrotation
                  End Site
                  {
                    OFFSET -1.78271 -1.18214 1.43049
                  }
                }
              }
              JOINT rIndex1
              {
                OFFSET -7.75947 0.938293 5.60832
                CHANNELS 3 Zrotation Xrotation Yrotation
                JOINT rIndex2
                {
                  OFFSET -2.54057 -0.884171 1.56538
                  CHANNELS 3 Zrotation Xrotation Yrotation
                  End Site
                  {
                    OFFSET -1.62519 -0.234802 1.16502
                  }
                }
              }
              JOINT rMid1
              {
                OFFSET -8.24714 1.18213 3.41376
                CHANNELS 3 Zrotation Xrotation Yrotation
                JOINT rMid2
                {
                  OFFSET -3.10165 -0.590103 1.0647
                  CHANNELS 3 Zrotation Xrotation Yrotation
                  End Site
                  {
                    OFFSET -2.48547 -0.328903 0.83742
                  }
                }
              }
              JOINT rRing1
              {
                OFFSET -8.82822 0.546677 1.51678
                CHANNELS 3 Zrotation Xrotation Yrotation
                JOINT rRing2
                {
                  OFFSET -2.60934 -0.819778 -0.0198488
                  CHANNELS 3 Zrotation Xrotation Yrotation
                  End Site
                  {
                    OFFSET -2.33842 -0.294052 0.168128
                  }
                }
              }
              JOINT rPinky1
              {
                OFFSET -8.27202 -0.0477905 -0.4584
                CHANNELS 3 Zrotation Xrotation Yrotation
                JOINT rPinky2
                {
                  OFFSET -1.82734 -0.647385 -0.700984
                  CHANNELS 3 Zrotation Xrotation Yrotation
                  End Site
                  {
                    OFFSET -1.69225 -0.51767 -0.607171
                  }
                }
              }
            }
          }
        }
      }
      JOINT lCollar
      {
        OFFSET 2.68224 19.2634 -4.8768
        CHANNELS 3 Zrotation Xrotation Yrotation
        JOINT lShldr
        {
          OFFSET 8.77824 -1.95073 1.46304
          CHANNELS 3 Zrotation Xrotation Yrotation
          JOINT lForeArm
          {
            OFFSET 28.1742 -1.7115 0.48768
            CHANNELS 3 Zrotation Xrotation Yrotation
            JOINT lHand
            {
              OFFSET 22.5879 0.773209 7.07136
              CHANNELS 3 Zrotation Xrotation Yrotation
              JOINT lThumb1
              {
                OFFSET 1.2192 -0.487915 3.41376
                CHANNELS 3 Zrotation Xrotation Yrotation
                JOINT lThumb2
                {
                  OFFSET 3.37035 -0.52449 3.41376
                  CHANNELS 3 Zrotation Xrotation Yrotation
                  End Site
                  {
                    OFFSET 1.78271 -1.18214 1.43049
                  }
                }
              }
              JOINT lIndex1
              {
                OFFSET 7.75947 0.938293 5.60832
                CHANNELS 3 Zrotation Xrotation Yrotation
                JOINT lIndex2
                {
                  OFFSET 2.54057 -0.884171 1.56538
                  CHANNELS 3 Zrotation Xrotation Yrotation
                  End Site
                  {
                    OFFSET 1.62519 -0.234802 1.16502
                  }
                }
              }
              JOINT lMid1
              {
                OFFSET 8.24714 1.18213 3.41376
                CHANNELS 3 Zrotation Xrotation Yrotation
                JOINT lMid2
                {
                  OFFSET 3.10165 -0.590103 1.0647
                  CHANNELS 3 Zrotation Xrotation Yrotation
                  End Site
                  {
                    OFFSET 2.48547 -0.328903 0.83742
                  }
                }
              }
              JOINT lRing1
              {
                OFFSET 8.82822 0.546677 1.51678
                CHANNELS 3 Zrotation Xrotation Yrotation
                JOINT lRing2
                {
                  OFFSET 2.60934 -0.819778 -0.0198488
                  CHANNELS 3 Zrotation Xrotation Yrotation
                  End Site
                  {
                    OFFSET 2.33842 -0.294052 0.168128
                  }
                }
              }
              JOINT lPinky1
              {
                OFFSET 8.27202 -0.0477905 -0.4584
                CHANNELS 3 Zrotation Xrotation Yrotation
                JOINT lPinky2
                {
                  OFFSET 1.82734 -0.647385 -0.700984
                  CHANNELS 3 Zrotation Xrotation Yrotation
                  End Site
                  {
                    OFFSET 1.69225 -0.51767 -0.607171
                  }
                }
              }
            }
          }
        }
      }
    }
  }
  JOINT rButtock
  {
    OFFSET -8.77824 4.35084 1.2192
    CHANNELS 3 Zrotation Xrotation Yrotation
    JOINT rThigh
    {
      OFFSET 0 -1.70687 -2.19456
      CHANNELS 3 Zrotation Xrotation Yrotation
      JOINT rShin
      {
        OFFSET 0 -36.8199 0.73152
        CHANNELS 3 Zrotation Xrotation Yrotation
        JOINT rFoot
        {
          OFFSET 0.73152 -45.1104 -5.12064
          CHANNELS 3 Zrotation Xrotation Yrotation
          End Site
          {
            OFFSET -1.1221 -3.69964 12.103
          }
        }
      }
    }
  }
  JOINT lButtock
  {
    OFFSET 8.77824 4.35084 1.2192
    CHANNELS 3 Zrotation Xrotation Yrotation
    JOINT lThigh
    {
      OFFSET 0 -1.70687 -2.19456
      CHANNELS 3 Zrotation Xrotation Yrotation
      JOINT lShin
      {
        OFFSET 0 -36.8199 0.73152
        CHANNELS 3 Zrotation Xrotation Yrotation
        JOINT lFoot
        {
          OFFSET -0.73152 -45.1104 -5.12064
          CHANNELS 3 Zrotation Xrotation Yrotation
          End Site
          {
            OFFSET 1.1221 -3.69964 12.103
          }
        }
      }
    }
  }
}
MOTION
Frames:	7
Frame Time:	0.03333
-27.3451 45.7053 30.652800000000003 -176.054194 32.071116 -168.483382 -0.593745 8.289491 46.336401 -5.308171 -6.101051 -26.567538 17.435537 25.241329 93.19328 -34.813545 14.623955 -73.4128 -5.205055 -1.043854 22.665461 6.542776 -0.466463 -8.147149 -141.176827 57.994539 149.905991 142.687073 -19.994013 151.886055 0.696189 49.398877 109.34775 -6.895465 33.027353 0.907117 -172.780778 0.440593 93.447109 -49.380705 -7.944769 9.465632 17.205107 -41.138515 5.594413 -163.815421 -66.790589 148.806501 -0.529972 -0.28954 2.027393 -173.297437 -4.431189 160.958704 -150.475134 11.24986 -179.827811 8.179158 -21.839565 -37.940991 2.92971 -11.314623 -28.008179 94.552046 -82.621492 96.97057 -14.074266 -33.458272 -7.120509 -61.316491 28.014483 11.708005 -156.762979 38.550835 -44.707589 159.937954 26.821708 -133.503909 6.269484 -16.568979 2.656687 28.689318 -50.203371 113.635488 -102.894327 -71.035855 -55.78056 6.785027 -12.279434 14.144422 9.12672 17.932601 3.124599 5.018323 37.781902 -21.35273 137.797462 -65.681235 166.490069 -16.462828 -11.80184 -9.9055 128.866909 -48.643941 129.81546 148.421621 42.706286 162.127883 -34.918332 -0.369935 -22.502685 -6.429683 -39.352619 -131.176106 -94.72435 -13.898823 169.532128 -31.544865 -11.799022 -92.574402 25.924109 -2.18704 0.308115 70.004148 -62.475357 -8.409986 -106.996413 7.176032 -146.267564 168.767121 36.90383 110.066013
-29.034100000000002 45.400400000000005 31.277300000000004 -176.296879 32.021406 -168.367072 0.461869 5.126012 173.883324 -0.413606 4.574512 -153.961873 17.803812 24.284634 83.631714 -35.256678 10.063417 -65.576547 -7.153957 -1.612438 25.373097 12.60318 -0.507084 -4.589517 0.597175 28.582091 -2.832971 -111.665609 20.229225 127.296939 148.420796 -50.97078 -99.303961 -20.431607 58.240453 7.981634 -1.410984 -10.030778 -5.450071 149.677953 -75.339459 73.316023 -38.461532 16.086914 20.961728 14.028029 60.024949 0.399325 -156.305958 9.292737 139.273582 -14.576365 38.827213 30.899405 -148.352507 -0.809281 -177.142908 53.324255 48.772544 -30.346999 -156.844107 39.478249 -118.685472 36.708066 33.159194 -45.397088 21.625651 39.442066 -30.072 -59.929525 -11.410978 -50.477861 -42.913311 9.436763 -125.633701 39.992894 46.274409 -18.711082 -17.251519 -36.514547 -5.188583 32.324425 -32.097022 91.411875 107.802885 28.072588 -87.855861 -23.304391 11.749549 -9.060253 6.521649 9.82495 6.111476 -114.031116 -71.951962 -68.550072 142.85636 -31.35538 -178.300552 166.365255 -56.135404 -165.130756 122.328166 68.570909 -162.059348 130.272244 -22.491888 135.766769 -106.297642 65.980703 -62.139321 104.671446 11.122188 137.3451 90.405476 -28.421373 -73.403948 148.170021 -28.273206 34.79916 105.684107 41.880045 54.075613 -110.357464 -32.756634 124.378908 106.061174 -38.610711 -164.528446 21.440945 -0.119116 84.899694
-30.0247 45.7097 31.7928 -176.129056 28.73845 -170.671785 1.028582 6.421157 179.479586 0.567074 3.756623 -157.828116 17.986627 23.47934 101.729888 -29.055817 17.43632 -75.222599 -18.571505 -3.628074 21.925797 34.75608 3.773807 12.018525 1.666966 33.194081 -0.521132 92.259275 -43.751922 64.327795 168.283008 -59.503273 17.431189 158.811452 -22.731076 133.507433 -0.86616 -14.987561 -3.757033 -55.233168 26.633476 47.888946 -170.057429 -13.7252 108.533596 -1.940331 2.056648 23.616364 4.47826 -14.268165 6.295162 -40.538797 74.444338 9.294209 -14.212632 -6.169997 -1.563883 11.42037 6.589581 19.212489 160.329621 77.16749 -99.180736 -152.494933 -27.609956 -80.188953 -3.401816 -1.879244 -11.747985 115.861925 -11.905868 -164.948224 2.590979 -28.327092 151.823905 173.033811 -2.412182 -140.42724 170.17876 10.225129 -89.075124 -57.088253 -46.031137 -85.5552 -33.131345 -44.095713 -8.74811 -1.432963 -10.229093 29.91493 4.79924 13.077413 6.011265 -88.933646 -64.904653 -50.189173 131.710536 17.887267 -161.892611 119.793968 -25.066421 -179.157181 28.747458 -51.527577 23.196095 129.74543 2.791975 140.572055 86.480106 68.186661 68.111765 161.19622 41.537923 -126.067141 -92.030879 -27.487214 -179.804482 -176.917075 21.806041 103.552921 -4.445077 -2.449363 -5.571111 95.409466 -60.313484 -175.753526 105.303853 -24.19717 27.388514 -178.488511 65.377856 88.006213
-30.9473 45.2456 32.001000000000005 -176.436087 28.716331 -171.332091 0.231948 11.815589 -7.164448 1.251364 -8.89957 29.690923 16.499964 23.683843 110.316955 -27.113432 19.987965 -82.295803 -21.111586 -2.739476 14.623874 21.523665 2.273969 11.922223 -151.386123 -5.257003 173.974345 -44.688056 -43.759962 -26.074395 -95.4504 62.403624 -54.089088 124.531678 -58.708338 104.951098 -171.670534 5.005337 96.918871 -173.166695 -14.604074 96.164664 -12.562258 -3.89109 7.414238 -149.981066 -42.354557 147.898504 -142.412098 24.864228 129.083689 -168.221008 -67.232076 126.681824 -12.91782 -16.217676 -4.43571 25.806935 -26.981341 17.856572 -146.918403 53.042898 -141.77788 -141.715987 -3.919215 -92.192176 136.947915 21.425629 -139.235729 -139.251715 -24.783559 -154.799615 -169.667953 49.939234 -39.943353 168.295796 17.535097 -135.387766 172.384579 8.410551 -88.168425 138.532865 -5.845549 -24.956614 -150.773391 -61.401656 -97.915251 8.096756 3.034285 11.947175 6.746027 -8.655038 6.612277 -5.484929 33.150379 -13.915884 -20.509686 -55.960993 -5.090999 -130.680584 -42.016283 -128.148572 0.632582 -20.427853 -9.593558 159.189505 50.708201 157.380263 55.385429 24.875513 51.830429 -125.309107 26.446714 -146.901687 -96.301589 -19.592406 -12.523431 29.64142 16.19273 86.235387 -166.241797 73.6701 -5.910491 -153.976917 -14.377709 -127.101344 -109.239951 -40.180468 -49.916813 95.482943 -34.118962 174.653704
-31.9828 44.6505 32.2632 -176.313645 29.180732 -171.035149 0.18629 7.134216 175.823121 -0.589471 5.004387 -153.459017 -3.833379 28.288382 -115.649275 29.748835 24.031875 135.541509 -14.999689 -2.090202 15.778282 9.805479 0.184542 2.151132 -131.17637 -65.185105 -157.599724 75.812407 52.817128 -66.046913 -39.903074 18.978402 145.714209 10.353768 -15.507493 2.491892 -168.308678 11.428183 95.745457 -40.67469 -24.013621 8.957594 -173.033591 -34.684171 119.253927 -144.878662 17.719748 88.938137 -154.616575 -3.937397 139.513765 -81.040571 42.881938 98.315293 -12.24325 13.326192 3.489449 -137.427017 46.936591 134.637848 -135.607808 20.667144 -143.961098 -140.72214 8.619295 -109.466829 -2.587963 6.445619 -15.851209 -52.214952 5.752208 -19.363991 -5.66609 -34.737016 -115.341259 8.575168 -3.973407 7.061907 -177.402678 -1.729906 -90.513433 137.265441 10.283147 -22.593151 132.608471 18.228902 -99.45742 -92.162899 -48.208626 -46.258273 6.130339 -20.026756 3.356418 -0.132638 51.3688 -13.674699 -14.095329 -23.047906 -12.40283 27.374146 -17.398771 -24.202597 94.437891 -67.640459 99.508132 132.151646 52.224783 -177.57361 2.069796 -6.63762 4.104511 -58.764227 -23.161614 -108.449251 -94.481363 19.591376 15.666536 -141.453963 -69.181762 -49.551275 62.341688 17.904685 32.562863 -73.838182 -71.988071 -106.88985 -106.542937 14.118809 -141.703752 -108.366999 -38.293633 164.981347
-33.2493 44.3219 32.6412 -176.091713 30.787414 -170.224347 0.574019 6.749112 177.102709 -0.080701 5.520143 -154.760657 -5.064555 27.892297 -109.235661 31.494773 21.594429 128.675736 -10.65517 -1.67358 17.803329 5.947963 -0.393618 -7.565521 1.882232 -6.549411 -11.465711 -119.152139 -8.362744 158.402624 173.099488 -48.009542 -76.753232 -10.862615 44.107294 2.72649 -170.734937 11.065249 95.498933 144.416996 -36.258615 94.846396 -112.355735 36.1774 88.097448 -112.92338 21.317086 98.224638 24.546022 -46.953106 1.674919 -6.509207 -55.599846 6.16404 -155.935157 -9.176273 -175.25798 42.977897 50.870546 -27.374353 -18.698905 -42.910179 -28.685803 20.989608 -13.639776 13.703431 150.538097 -6.065877 -148.195287 36.249283 7.0916 -0.561755 162.977425 47.0973 77.500545 5.580543 -15.537584 7.752048 162.141811 17.945925 -84.398292 41.644119 -56.715641 -42.499477 146.957224 4.783713 -108.966396 14.540053 9.087126 -13.205193 177.032577 -20.680317 -143.752395 -21.402798 -78.352492 -12.834698 117.976535 34.352998 -145.496351 87.597594 -25.673404 118.63799 105.123551 -63.097006 111.256949 60.019486 68.542128 -102.806989 -170.119956 83.243585 -9.757682 125.495958 18.496506 158.63331 110.57257 -54.205718 54.381642 115.250743 51.38682 151.004252 -145.416794 72.979644 -11.009409 -156.055543 -9.264306 -107.470513 -102.542607 -35.292623 17.6534 103.304615 49.39179 -19.044223
-34.7111 44.0488 33.1417 -175.911726 32.155316 -169.458731 1.57112 11.063733 -19.600178 2.380251 -10.239718 41.905376 14.914383 25.661663 113.277237 -28.308088 21.194157 -86.330795 -9.269219 -1.600013 19.546618 10.280141 -1.044916 -11.577066 1.524914 14.395828 -6.171119 -124.949712 -6.463865 142.052816 44.245848 -12.209314 -150.086734 178.604611 21.538083 148.323099 -9.984203 -9.501683 -9.056254 -25.978855 30.175353 33.027764 -108.919032 39.13085 84.211591 -153.159955 -20.866465 103.581924 -165.656815 -29.07808 140.872642 66.09822 -37.871751 41.867186 -10.599166 2.85536 0.211756 17.958276 -46.456491 15.477131 -89.848887 -48.255415 -99.804289 11.593575 -28.4541 -15.544134 -22.942574 -44.840872 -10.595399 115.592192 -26.732844 157.796942 -1.528034 -20.950937 147.557298 173.129179 0.594565 -139.50364 -172.758007 -5.27855 -91.579481 -95.239881 -48.704701 -116.253266 7.31177 -4.790302 -3.700275 -112.872072 -79.979196 -42.772834 166.080762 5.566447 -140.868547 171.53613 18.535511 -134.375605 -14.465348 -25.388763 -9.161131 -2.866211 -44.039456 -38.626869 138.635858 13.830795 159.02398 -41.313101 36.115052 -5.782398 1.910288 -8.622285 1.461377 -62.91681 -27.505501 53.394683 101.080367 -13.650763 15.814937 -44.054743 -15.69542 -115.459877 -69.694132 50.252332 -49.184086 168.598893 -5.380688 -81.359307 -105.645375 -26.660421 153.615872 145.201796 -84.825008 50.801023
